<svg id="Layer_1" data-name="Layer 1" xmlns="http://www.w3.org/2000/svg" xmlns:xlink="http://www.w3.org/1999/xlink" viewBox="0 0 512 512"><defs><linearGradient id="linear-gradient" x1="256" y1="456.83" x2="256" y2="55.17" gradientUnits="userSpaceOnUse"><stop offset="0" stop-color="#231f20"/><stop offset="1" stop-color="#58595b"/></linearGradient></defs><title>users</title><path d="M389.5,402.89c0,70.45-389.5,73.38-389.5,0,0-29.72,32.72-54,72.65-54s72.6-18.29,72.6-40.64-14.78-31.26-24.09-40.71C109.36,255.53,97,226,97,175.33V155.66c0-50.69,41.57-92.14,92.34-92.14H204.5c50.78,0,92.34,41.45,92.34,92.14v19.67c0,50.69-12.84,83.33-22.23,92.16-8.92,8.38-22.26,18.31-22.26,40.71s30.85,40.64,68.56,40.64S389.5,373.16,389.5,402.89ZM456.14,287.6c-30.69,0-55.84-14.92-55.84-33.13s10.87-26.32,18.13-33.14c7.65-7.21,18.1-33.8,18.1-75.09v-16c0-41.31-33.85-75.09-75.19-75.09H349a74.74,74.74,0,0,0-49.48,18.73,125.16,125.16,0,0,1,30.39,81.75v19.67c0,53-12.56,97.63-32.77,116.64l-2.89,2.66c-6.28,5.73-8.15,7.78-8.62,10.88,3.81,3.42,15.93,9.88,35.28,9.88,43.43,0,80.5,23.64,95,56.69,53.71-5.93,96.06-19.53,96.06-40.48C512,307.39,486.83,287.6,456.14,287.6Z" fill-rule="evenodd" fill="url(#linear-gradient)"/></svg>