<svg id="Layer_1" data-name="Layer 1" xmlns="http://www.w3.org/2000/svg" xmlns:xlink="http://www.w3.org/1999/xlink" viewBox="0 0 512 512"><defs><linearGradient id="linear-gradient" x1="256" y1="512" x2="256" gradientUnits="userSpaceOnUse"><stop offset="0" stop-color="#231f20"/><stop offset="1" stop-color="#58595b"/></linearGradient></defs><title>process</title><path d="M496.64,224H459.7c-8.47,0-16.47-5-17.78-11.2s-.25-25.22,7.09-29.39l32.14-18.2a15.44,15.44,0,0,0,5.79-21l-16.4-29a15.4,15.4,0,0,0-20.92-5.79l-32,18.15c-7.34,4.16-17,3.58-21.34-1.31s-13.64-22.54-9.33-29.83l18.64-31.75a15.39,15.39,0,0,0-5.43-21L371.42,26.9a15.4,15.4,0,0,0-21,5.43L331.7,64.19c-4.3,7.27-13.09,11.5-19.54,9.4S288,60.77,288,52.3V15.36A15.41,15.41,0,0,0,272.64,0H239.37A15.41,15.41,0,0,0,224,15.36V52.3c0,8.47-5,16.47-11.22,17.8s-25.22.26-29.39-7.09l-18.2-32.12A15.37,15.37,0,0,0,144.3,25.1l-29,16.4a15.37,15.37,0,0,0-5.79,20.92l18.13,32c4.16,7.36,3.56,17-1.3,21.34s-22.54,13.64-29.81,9.33L64.8,106.45a15.39,15.39,0,0,0-21,5.43L26.91,140.6a15.42,15.42,0,0,0,5.45,21l31.84,18.7c7.28,4.3,11.53,13.09,9.41,19.54S60.77,224,52.33,224H15.38A15.41,15.41,0,0,0,0,239.38v33.27A15.41,15.41,0,0,0,15.38,288H52.33c8.45,0,16.46,5,17.79,11.2s.26,25.22-7.09,29.39L30.88,346.81a15.4,15.4,0,0,0-5.79,20.94l16.4,29a15.42,15.42,0,0,0,20.94,5.79l32-18.17c7.34-4.16,17-3.56,21.34,1.31s13.62,22.53,9.31,29.81l-18.66,31.79a15.4,15.4,0,0,0,5.43,21l28.72,16.86a15.43,15.43,0,0,0,21-5.47l18.7-31.84c4.3-7.28,13.09-11.52,19.54-9.4S224,451.25,224,459.68v37A15.41,15.41,0,0,0,239.37,512h33.27A15.41,15.41,0,0,0,288,496.64v-37c0-8.43,5-16.44,11.18-17.78s25.22-.25,29.39,7.09l18.2,32.14a15.42,15.42,0,0,0,21,5.79l28.95-16.4a15.4,15.4,0,0,0,5.79-20.92l-18.11-32c-4.2-7.34-3.6-17,1.27-21.34s22.52-13.62,29.83-9.31l31.75,18.66a15.41,15.41,0,0,0,21-5.47l16.86-28.68a15.4,15.4,0,0,0-5.43-21l-31.85-18.7c-7.27-4.3-11.5-13.09-9.42-19.54S451.23,288,459.7,288h36.94A15.41,15.41,0,0,0,512,272.64V239.38A15.41,15.41,0,0,0,496.64,224ZM256,334.59A78.59,78.59,0,1,1,334.59,256,78.58,78.58,0,0,1,256,334.59Z" fill-rule="evenodd" fill="url(#linear-gradient)"/></svg>