<svg id="Layer_1" data-name="Layer 1" xmlns="http://www.w3.org/2000/svg" xmlns:xlink="http://www.w3.org/1999/xlink" viewBox="0 0 512 512"><defs><linearGradient id="linear-gradient" x1="256" y1="507.43" x2="256" y2="4.57" gradientUnits="userSpaceOnUse"><stop offset="0" stop-color="#231f20"/><stop offset="1" stop-color="#58595b"/></linearGradient></defs><title>television</title><path d="M481.34,122.5H290l46.54-45.69a45.64,45.64,0,0,0,5.36,1.82c20.51,5.41,41.6-6.52,47-26.58s-6.69-40.73-27.2-46.14-41.56,6.52-47,26.62A37,37,0,0,0,317,58.2l-61.35,60.21L194.74,58.66A36,36,0,0,0,197.3,52c5.45-20.1-6.73-40.73-27.2-46.1s-41.6,6.48-47,26.58,6.69,40.73,27.2,46.1A38.93,38.93,0,0,0,174.93,77l46.38,45.52H30.62A30.72,30.72,0,0,0,0,153.12V476.81a30.72,30.72,0,0,0,30.62,30.62H481.34A30.72,30.72,0,0,0,512,476.81V153.12A30.72,30.72,0,0,0,481.34,122.5ZM321.88,442.77H66.32V187.16H321.88Zm94,6.15a26.39,26.39,0,1,1,26.37-26.41A26.38,26.38,0,0,1,415.89,448.91Zm0-83.9a26.39,26.39,0,1,1,26.37-26.41A26.38,26.38,0,0,1,415.89,365Zm0-83.9a26.41,26.41,0,1,1,26.37-26.4A26.37,26.37,0,0,1,415.89,281.12Z" fill-rule="evenodd" fill="url(#linear-gradient)"/></svg>